<svg style="width:100%; height:auto; fill:rgb(93, 221, 98);" xmlns="http://www.w3.org/2000/svg" viewBox="0 0 1200 1200" height="1200" width="1200"><path d="M599.77 690.6c16.391 2.004 28.992 5.004 37.789 9 8.797 4.402 15 8.606 18.602 12.613l4.801 4.789 3.602 5.398c2.797 6 4.402 9.793 4.801 11.387 3.996 10.402 6 26.004 6 46.801 0 5.207-1.211 21.203-3.602 48l-2.398 14.398-4.801 14.398c-2.797 6.394-5.398 10.801-7.789 13.199-3.613 5.606-6.805 9.793-9.613 12.613-6 6-13.789 12.191-23.387 18.59-5.207 3.613-13.008 8.809-23.398 15.613-5.207 3.203-12.395 9.203-21.602 18-6.805 6-12.613 12.395-17.398 19.199l-5.398 11.398-2.398 12c-1.199 18.395-2.606 30-4.199 34.789l-1.211 6-8.387 15c-6 8.41-13.402 14.207-22.211 17.41-9.996 3.984-20.195 2.594-30.602-4.211-5.606-3.602-11.398-8.797-17.398-15.602-13.598-16.402-27-40.008-40.199-70.801l-22.211-77.387c-3.996-12.805-9.203-24.406-15.602-34.801-4.391-6.394-8.004-10.402-10.789-12l-15-9c-23.207-11.207-37.008-18.215-41.398-21-8.398-4.402-15.996-10.008-22.801-16.801-8.004-9.203-12.602-19.598-13.789-31.199-1.609-9.613.395-20.398 6-32.398 1.992-5.207 5.195-10.211 9.602-15 .793-1.211 5.004-4.789 12.602-10.789l19.199-13.211 3-3 7.801-27c4.402-13.211 9.203-22.789 14.398-28.789 3.602-4.402 9-7.801 16.199-10.211 5.207-1.211 9.996-.996 14.398.602 6.793 2.004 10.199 5.207 10.199 9.613-.395 3.191-3.602 6.394-9.602 9.59l-4.809 4.195-2.398 4.789-8.398 38.41-5.398 15.59c-3.203 6.394-7.598 11.41-13.199 15l-21.602 15.613c-4.801 3.203-7.801 6.394-9 9.602-2.797 6-4.008 10.391-3.613 13.211 1.211 3.59 3 7.199 5.398 10.789 7.211 6 12 9.602 14.398 10.789 1.199 1.211 14.398 7.609 39.602 19.211l22.801 14.398c6 5.606 11.605 12.203 16.789 19.801 8.797 14.785 15.215 29.387 19.211 43.789 3.203 8.797 6.996 22.211 11.398 40.211 3.996 16.789 7.391 28.789 10.199 36 9.996 25.992 21 46.199 33 60.59 3.203 4.008 6.394 6.613 9.602 7.801 1.211.793 2.004 1.008 2.398.613 2.004-.805 3.602-2.41 4.801-4.801l3.602-5.398 1.199-4.211 4.211-30.59 4.789-19.801 8.398-16.801c5.606-8.387 13.598-16.992 24-25.801l25.199-19.789c25.211-15.996 39.613-25.789 43.211-29.398 8.004-8.387 13.598-21 16.789-37.801 5.606-41.195 6-68.785 1.211-82.789-3.203-9.602-9.394-16.609-18.602-21-6.394-2.797-16.801-5.606-31.211-8.398-16.391-2.797-27-4.801-31.789-6-12.395-3.203-22.211-7.598-29.398-13.199-5.606-4.402-12-10.199-19.211-17.398-6-6-11.195-9.996-15.602-12-6.793-3.602-17.605-5.797-32.398-6.602-6.394-1.199-15.793-1.199-28.199 0-6.793-2.398-12.395-6.394-16.801-12-4.789-6.793-8.785-11.207-12-13.199l-3-3 4.211 1.789c2.797.793 8.004 4.609 15.602 11.398 4.801 3.996 9.602 6.203 14.398 6.602 10.391-2.398 19.199-3.602 26.398-3.602 5.195-.395 10.992-.395 17.387 0l10.801 1.801c4.801 1.199 8.398 2.387 10.801 3.59 5.606 2.41 12.395 7.008 20.387 13.801 8.398 7.598 14.398 12.613 18 15 7.227 4.394 25.43 8.391 54.629 11.992zM969.37 294l18-4.211h16.199c9.602 1.211 14.605 3.805 15 7.801 0 3.203-3.996 7.008-12 11.398l-73.789 37.211-13.801 3c-1.598.395-5.797 1.199-12.602 2.387-2.797 0-6 .203-9.602.613l-54-1.211c-23.605 0-44.605 3-63 9-19.609 6-35.207 15.395-46.801 28.211-2.797 1.992-4.199 3.793-4.199 5.387v1.199c1.199 2.41 5.785 8.41 13.789 18l-1.789-1.199c6 6.394 10.992 13.801 15 22.199l6.602 18 3.602 4.801 3 2.398c1.199 1.211 3.996 1.789 8.398 1.789 5.195 1.211 12.203-1.391 21-7.789l27-17.398-1.801.613c7.211-4.801 17.207-9 30-12.613 8.398-1.992 18-3.394 28.801-4.199a69.46 69.46 0 0 1 24 1.801c2.797.395 5.797 1.199 9 2.387 8.004 3.613 13.789 8.207 17.398 13.801 1.598 1.992 3.394 5.606 5.387 10.801.805 2.387 1.211 5.785 1.211 10.199.395 2.387.203 5.606-.602 9.602l-2.398 8.398c-.805 5.207-3.602 10.992-8.398 17.387-5.606 5.606-12.793 11.004-21.602 16.211-1.609.395-3 .996-4.211 1.789-3.203 1.609-7.789 3.215-13.789 4.801-8.797 2.797-20.207 6.203-34.211 10.199-17.195 4.008-29.605 8.606-37.199 13.801-4.801 2.797-8.207 6.394-10.199 10.801-.805 1.598-2.398 6.394-4.801 14.387l-4.801 52.211v2.398c.805.793 2.797 1.391 6 1.801l19.211 4.199c1.598 0 8.797 1.801 21.602 5.387 16.801 6 29.605 13.402 38.398 22.211 9.996 9.203 18.602 20.797 25.789 34.789l8.398 18 5.398 18.613c7.199 31.199 13.598 51.395 19.199 60.602 4.801 6.793 9.613 10.211 14.398 10.211 7.609 0 13.609-2.207 18-6.613 8.398-6.793 11.605-21.395 9.602-43.801l-4.199-55.199c1.199-25.992 3-43.598 5.398-52.801 2.398-6.793 7.391-14.387 15-22.789l13.789-15.602c3.215-4.801 4.801-8.606 4.801-11.398l-2.398-4.211-6-4.789c-6.394-4.391-16.789-10.211-31.199-17.398l-31.801-20.387c-5.606-6.805-8.004-13.211-7.199-19.211.793-5.207 4.598-10.391 11.398-15.602l8.387-4.801 7.211-2.387c1.199-.406 6.203-1.402 15-3 7.598 0 15.996 1.789 25.199 5.387l34.211 19.199c9.996 6.394 18.203 10.211 24.602 11.41l5.398 1.199 12-2.398c4.789-3.203 8.195-5.207 10.199-6l7.199-8.398-6 10.199-4.199 4.211-6 4.789-8.398 3-6.602.613-6-.613c-8.398-1.199-17.605-4.598-27.602-10.199l-34.211-15.602c-1.992-.805-5.387-1.609-10.199-2.398h-10.199c-5.606 1.199-9 2.004-10.211 2.398-3.996 1.609-6.996 3.203-9 4.789-2.797 2.004-4.199 4.402-4.199 7.211 0 2.004 1.598 4.211 4.789 6.602l25.801 13.199c18.793 9.613 30.395 15.805 34.801 18.613a31.75 31.75 0 0 1 9 9c4.391 3.996 6.602 8.387 6.602 13.199.395 8.004-2.398 17.004-8.398 27-1.199 2.004-6.203 8.207-15 18.613-5.207 6.394-8.398 11.594-9.602 15.59-1.609 7.609-2.004 22.609-1.211 45v13.211l5.398 39.602c.805 11.605.602 22.199-.602 31.801-2.797 14.785-8.606 26.207-17.398 34.199-10.789 9.613-23.797 14.004-39 13.199-8.004 0-15.395-2.606-22.199-7.789l-7.801-7.789-6-7.801c-6-10.008-11.004-21.613-15-34.801-3.602-14.797-6.602-25.992-9-33.602-3.203-11.207-7.199-21.395-12-30.602l-9-13.199c-5.195-6.805-8.797-10.801-10.789-12-6-5.606-15.215-10.402-27.613-14.41-5.606-1.992-11.605-3.394-18-4.199l-21-4.199c-13.598-2.797-22.598-9.394-27-19.801-1.199-2.387-1.789-5.606-1.789-9.602-.805-3.996-.996-6.602-.602-7.789l1.199-12c.793-5.606 1.199-12.215 1.199-19.801l2.398-22.801c1.609-11.605 4.211-20.797 7.801-27.602 4.789-6.805 9.996-12.602 15.602-17.398 1.598-1.199 3.203-2.606 4.801-4.199 11.195-7.199 27.203-13.402 48-18.613 19.992-5.606 33.996-10.199 42-13.789 6-2.797 10.598-5.797 13.789-9l1.211-2.398 1.789-9-.602-1.801-2.398-2.387c-3.996-1.609-9.602-2.004-16.789-1.199-6.805 0-14.207 1.199-22.211 3.59-8.398 2.004-14.605 4.402-18.602 7.211l-1.199 1.789c-2.398.805-10.402 6.215-24 16.211l-7.801 5.398-10.199 4.801-12 3c-2.797.395-7.211.59-13.211.59-10.391-.793-19.199-3.394-26.398-7.789-1.199-.395-4.992-3.805-11.387-10.211l-7.144-10.828c-8.398-19.211-13.199-29.398-14.398-30.602l-1.789-1.199c-9.203-12.406-15.395-21.406-18.602-27-4.402-8.809-4.801-17.605-1.211-26.41 1.609-6.394 5.398-12.996 11.398-19.789 15.203-16.391 35.797-28.789 61.801-37.211 21.996-7.598 46.598-11.387 73.789-11.387l55.211 1.199 25.199-4.199zm-101.4-142.21l-7.199-6 53.387 31.801c38.398 26.797 70.008 55.199 94.801 85.199l15 16.801 43.801 66.613c5.605 8.387 15.203 27 28.789 55.789 2.797 6.793 6.602 17.605 11.398 32.398 6.395 17.605 9.996 29.387 10.801 35.387l16.199 89.41 1.199 33c.805 12.395.613 27.793-.602 46.199-3.602 69.996-21.395 137.39-53.398 202.2l-29.387 51c-4.402 8.398-16.211 25.402-35.398 51l-21 24.613-48 45.59c-12 10.008-21.203 17.004-27.602 21l-28.801 20.41c-3.203 2.387-13.598 8.594-31.199 18.59l-67.211 31.801c-48 18-99.203 29.207-153.6 33.613-52.801 4.391-109.6-.805-170.4-15.613-61.199-15.203-117.2-40.199-168-75-56.004-37.598-103-84.203-141-139.8-41.195-59.605-69.395-124.79-84.602-195.59-14.797-66-16.598-131.21-5.398-195.61 1.211-11.207 3.203-22.199 6-33 18.395-81.996 53.605-155.39 105.6-220.2 22.402-28.801 52.801-59.004 91.211-90.613 46.391-32.785 84.793-55.199 115.2-67.199 82.801-37.598 173.61-51.793 272.4-42.602 3.996.395 22.801 3.602 56.398 9.602l52.199 15.613 48 21.59 24 15.613c14.797 10.801 21.203 17.605 19.211 20.387-2.398 3.613-11.605 2.606-27.613-3l-123.6-36-52.789-7.199c-71.605-7.199-139.01-.602-202.21 19.801.395 0 1.211.203 2.398.602 4.402.793 8.606 3.793 12.602 9 3.996 5.195 6.203 11.004 6.602 17.398 2.004 12 0 24-6 36-4.789 7.992-11.785 14.785-21 20.387-7.598 4.801-17.387 8.606-29.387 11.41l-28.801 4.199c-25.199 1.199-41.207 2.387-48 3.602-7.199 1.211-13.199 3.203-18 6-4.402 2.797-7.402 6-9 9.602l-1.199 3v3.613l.602 3c.793 2.785 3.394 6.191 7.789 10.199 3.613 3.203 8.207 5.387 13.801 6.602 7.598.793 12.203.996 13.801.602 1.992-.395 5.785-3 11.387-7.801l8.398-8.387c3.602-2.797 8.004-5.797 13.211-9 18.793-9.215 37.789-9.394 57-.613 18.793 8.809 30.793 22.609 36 41.41 2.785 9.191 3.203 18.793 1.199 28.789-2.398 9.203-6.602 17.195-12.602 24-8.398 11.195-20.398 21-36 29.398-8.797 4.391-21.203 9.394-37.211 15-15.602 5.207-26.387 9.203-32.387 12-8.398 3.602-16.609 8.785-24.613 15.602l-9 9.602-7.789 12.613c-9.602 18-13.609 35.195-12 51.59 1.598 8.004 4.391 15.215 8.398 21.613 3.602 4.801 9 9.602 16.199 14.387 1.199.805 2.207 1.402 3 1.801 13.199 7.598 20.605 12.203 22.199 13.801l12 13.199c2.797 4.402 5.004 9.613 6.613 15.613 2.785 10.391 3 20.785.602 31.199-.395 4.801-2.207 10.199-5.398 16.199-3.602 6-8.797 10.402-15.602 13.199l-8.398 2.41-8.398.59c-8.004 0-14.605-3.191-19.789-9.59-2.004-2.41-4.211-7.801-6.613-16.211l-.602-12c-.793-9.203-1.789-14.398-3-15.602l-.602-1.199-1.801-1.211-3.602-1.789c-.395 0-5.606.984-15.602 3-9.602 1.992-17.398 2.195-23.398.59l-1.199-.59h-1.211l-.602-.613h-.602l-7.199-4.801c-3.215-2.785-6-6.191-8.398-10.199a87 87 0 0 1-5.398-17.387c-1.598-9.215-4.199-15.406-7.801-18.613-.387-.391-.977-.594-1.781-.594-2.398-2.004-9.996-3.805-22.801-5.398-2.797-.793-7.199-2.207-13.199-4.199-6.805-3.613-10.801-5.606-12-6-5.606-4.402-10.211-11.004-13.801-19.801-2.004-6.793-3-13.402-3-19.801l-.602-27.59c0-6.406-1.402-12.215-4.199-17.41l-3-5.387-4.211-3.613-9-5.387 4.211.602c2.785 0 4.992.793 6.602 2.398l5.398 3 5.387 5.387c3.613 5.207 6.215 11.809 7.801 19.801l3 28.199c.395 5.207 1.801 10.402 4.199 15.613 4.008 6.394 7.609 10.598 10.801 12.602l9 3c.793.793 4.199 1.609 10.199 2.398 14.004 1.199 23.605 3.203 28.801 6 6 3.203 10.598 7.992 13.801 14.387.395.395.793 1.008 1.199 1.801 2.004 4.008 3.602 9 4.801 15 1.598 6.394 3.203 10.402 4.789 12l2.398 3h1.199l1.211 1.199h1.789c2.797.395 7.211-.191 13.211-1.789 10.391-2.797 18-3.996 22.789-3.602 12 1.598 20.398 7.391 25.211 17.387 2.004 5.207 3.602 13.402 4.789 24.613l2.398 12h1.211l4.199-.613 1.199-.59c2.797-1.211 4.402-4.609 4.801-10.211 1.199-6.394.602-12.805-1.801-19.211-.793-4.789-4.199-9.394-10.199-13.789-3.203-2.398-10.598-6.602-22.199-12.602-10.801-5.606-19.211-13.199-25.211-22.801 0-.395-.203-.793-.602-1.199-7.199-10.008-11.605-21.395-13.199-34.199-2.797-22.402 2.195-45.805 15-70.211l9.602-16.211c1.199-2.387 5.797-7.391 13.789-15 8.797-8.387 20.004-15.59 33.613-21.59 7.199-3.613 18.793-8.207 34.789-13.801 14.797-4.801 25.609-9 32.398-12.613 10.801-6.394 18.602-12.996 23.398-19.789 6-7.609 7.598-15 4.789-22.211-2.387-9.191-8.195-15.59-17.387-19.199-9.613-3.602-18.395-3-26.398 1.801l-5.398 3-8.398 7.801c-8.398 8.387-17.004 13.789-25.789 16.199-8.398 1.992-18.805 1.801-31.211-.613-11.605-3.191-20.797-7.789-27.602-13.789-10.402-7.609-17.207-16.391-20.398-26.398 0-.395-.602-3.602-1.789-9.602-.805-3.996-1.008-7.211-.613-9.602l1.801-9.613 3.602-8.387c4.402-10.402 12.203-18.793 23.398-25.199 7.199-4.008 17.004-7.402 29.398-10.211 8.398-1.211 25.789-2.398 52.199-3.602l22.801-3.613c9.203-2.785 15.602-5.387 19.199-7.789 3.996-1.609 6.996-3.996 9-7.211a44.73 44.73 0 0 0 6.602-15.59c1.211-4.801.805-9-1.199-12.613-2.004-7.199-3-11.387-3-12.602-13.598 5.195-27 10.609-40.199 16.211-30.395 12.395-66 33.395-106.8 63-37.598 30.395-66 58.598-85.199 84.59-48.805 62.004-81.805 130.8-99 206.41l-4.801 23.387c-10.801 62.797-9.395 126.2 4.199 190.2 14.797 67.211 41.398 128.61 79.801 184.21 35.605 51.602 79.801 95.195 132.6 130.79 16.801 11.207 29.398 19.008 37.801 23.41l80.398 35.387 40.199 12c54.395 13.598 108 18.395 160.8 14.398 48.395-3.602 96.793-14.207 145.2-31.789 35.207-15.215 56.398-25.211 63.602-30 13.609-7.211 23.398-12.805 29.398-16.801l27.602-18.613c11.207-9.191 19.801-15.996 25.801-20.387l23.398-21 60.602-69 44.398-73.801c29.605-60.793 47.195-124.99 52.789-192.6 3.203-57.996-1.598-112-14.398-162-12-47.207-27.395-87.203-46.199-120l-13.199-24.602c-4.402-5.606-9.215-12.613-14.398-21l-27.602-37.199c-10.801-14.016-27.395-31.801-49.801-53.41-9.996-9.59-23.004-20.785-39-33.59l-3.602-2.41c-13.156-10.332-25.961-19.332-38.355-26.938z"></path></svg>