<svg style="width:100%; height:auto; fill:rgb(93, 221, 98);" xmlns="http://www.w3.org/2000/svg" viewBox="0 0 1200 1200" height="1200" width="1200"><path d="M711.6 258.59c-5.606 2.41-12 4.223-19.199 5.41-14.398 2.387-30.602 3.191-48.602 2.387-20.004-1.199-49.598-4.992-88.801-11.387-31.199-5.207-51.805-7.992-61.801-8.41-26.004-1.199-51.793-1.598-77.398-1.199-37.598 1.621-68.207 5.016-91.801 10.199-39.602 7.617-72.805 20.41-99.602 38.41-33.203 22.402-61.199 52.992-84 91.801-24.793 43.598-40.598 89.785-47.398 138.59L91.197 544.2c-.793 10.801-.996 17.387-.602 19.801l6 85.199c1.199 9.613 4.199 24.395 9 44.387 17.605 74.016 40.801 133.8 69.602 179.41 13.199 18.793 21.996 30.793 26.398 36l13.199 16.801c4.402 4.379 6 8.207 4.801 11.387-1.199 2.809-5.398 3.613-12.602 2.387-7.199-1.992-15-5.785-23.398-11.387-10.402-7.598-21.793-20.207-34.199-37.801-30.801-49.184-55.797-112.99-75-191.38-4.402-20.41-7.199-35.605-8.398-45.613l-6-90.586c0-10.402 1.199-24.793 3.602-43.223 8.398-55.586 25.992-105.18 52.797-148.78 24.805-42.395 56.207-75.793 94.199-100.22l27.602-15 42-15 13.801-3.59c11.594-3.215 20.398-5.207 26.398-6 28.402-4.801 60.602-7.199 96.602-7.199 24.395 0 50.594 1.379 78.602 4.199 16.801 1.992 38.004 6 63.602 12 39.996 8.785 68.797 14.387 86.398 16.801 17.207 2.387 32.797 3.191 46.801 2.387 7.199 0 13.598-.613 19.199-1.801l4.199-.59zm4.199-1.789l-12 11.387c-21.203 19.992-39.395 45.215-54.602 75.613-19.199 36.395-45 112.6-77.398 228.59-9.996 36.395-19.598 66-28.801 88.801-16.402 38.387-35.398 70.199-57 95.387l-21 21.613c-5.207 5.207-9.406 8.809-12.602 10.801l-12 9.59c-16.402 12.422-35.398 23.809-57 34.223-21.602 10.379-43.801 18.395-66.602 24-27.203 6.394-52.801 7.777-76.801 4.199l-16.199-3.613-10.195-3.59-9-6c-6-3.613-10.402-8.016-13.199-13.223-.793-2.387-1.199-4.598-1.199-6.59-4.391-8.809-6.996-16.801-7.801-24-4.801-33.215-2.195-68.41 7.801-105.61 2.797-12 6.406-24 10.801-36-2.004-.395-3.602-1.379-4.801-3-4.391-7.598-8.398-19.801-12-36.59-1.199-9.613-1.391-18.613-.602-27 .805-11.207 2.606-21.793 5.398-31.801 1.199-5.207 2.797-9.215 4.801-12l2.398-2.41c.805 0 1.609.816 2.398 2.41 2.398 2.387 4.402 6.394 6 12l6 30.59c1.199 11.207 3 21.215 5.398 30a357.01 357.01 0 0 0 6-12.59l42.602-67.801c2.402-2.383 10.203-11.383 23.402-26.984l10.801-10.199c-.395-.793-.602-1.402-.602-1.801-2.004-20.387.996-38.785 9-55.199 1.609-4.801 4.402-10.008 8.398-15.613l8.398-9c4.801-3.191 8.594-4.801 11.398-4.801h3l.602 2.41-4.195 21.004c-.395 2.785-1.402 7.598-3 14.387-1.199 6.394-2.004 12.793-2.398 19.199l3.602-4.199 22.199-16.801h.602c-.395-4.379.996-7.199 4.199-8.387l8.398-1.199 26.398-18.613 34.199-21c12-7.598 21-12.984 27-16.199 27.602-16.008 48-26.785 61.199-32.387l11.398-4.223-8.996 8.422c-11.195 9.59-29.605 23.387-55.199 41.387l-53.402 39.613h2.398c6.406 0 12 .59 16.801 1.801l10.801 3c5.195 1.598 8.594 3.59 10.199 6l1.801 2.387-1.801 2.387c-2.004 1.621-5.594 3.215-10.801 4.801l-73.199 15h-.602l-48.598 44.426-9.602 12.59c-2.398 2.809-4.801 5.41-7.199 7.801l9-1.801c10.801-1.199 21.602-1.598 32.398-1.199 5.606 1.199 9.805 2.606 12.602 4.199l2.398 2.41-2.398 3c-2.398 1.992-6 4.199-10.801 6.59l-49.801 19.801-21.602 11.387-2.398 2.41c-.793.793-1.598 1.199-2.398 1.199h-.598c-8.004 12.793-14.195 24-18.602 33.613-12.805 27.984-22.402 54.59-28.801 79.777-.395 1.223-.602 2.606-.602 4.223 6.394-3.613 13.199-7.008 20.398-10.223 11.195-4.379 21.395-7.379 30.602-9 6-.793 10.598-.793 13.801 0l3 1.223-.602 3.59c-1.598 2.41-4.801 5.606-9.602 9.613-4.801 4.402-13.199 10.402-25.199 18-3.602 2.785-10.402 7.598-20.398 14.387-7.199 4.402-13.402 9-18.602 13.801-1.598 17.207-1.402 33.215.602 48 0 3.215.602 10.598 1.801 22.199v3l23.398 5.41 6 .59c18.793 2.809 40.598 1.402 65.398-4.199 19.199-5.207 39.406-12.395 60.602-21.613 20.797-10.379 38.004-20.578 51.602-30.59l22.199-18c4.402-4.008 10.801-10.402 19.199-19.199 20.004-23.605 37.598-52.801 52.801-87.613 9.602-21.613 19.801-49.992 30.602-85.199l23.398-75 22.199-63c12.793-34.402 27-64.598 42.602-90.613 18.805-31.199 40.598-54.984 65.398-71.387zm264.6 6.586c1.199-2.785 5.398-3.59 12.602-2.387 8.398 1.598 16.199 5.387 23.398 11.387 10.402 7.621 21.805 20.207 34.199 37.801 30.805 49.199 55.801 112.8 75 190.8l8.398 46.801 6 90c0 10.379-1.199 24.793-3.602 43.199-7.598 54-25.199 103.6-52.801 148.8-25.199 42.793-56.398 76.199-93.602 100.2l-28.199 15L948 951l-42 12.59c-11.605 3.215-20.398 5.207-26.398 6-27.996 4.402-60.203 6.613-96.602 6.613-24.406 0-50.605-1.199-78.602-3.613-12-1.199-33.203-5.184-63.602-12-39.996-8.785-68.797-14.387-86.398-16.777-17.195-2.41-32.797-3.215-46.801-2.41l-19.199 1.801-3 .613-.598-.004c.395-1.223 4.199-5.016 11.398-11.41 21.602-20.387 39.805-45.395 54.602-75 19.598-37.598 45.395-114 77.398-229.2 8.797-31.992 18.602-61.598 29.398-88.801 15.996-38.387 34.801-70.199 56.398-95.387l10.199-11.41L759.599 402c16.402-12.395 35.398-23.809 57-34.199 21.602-10.008 43.801-18 66.602-24 29.605-6.394 55.402-7.801 77.398-4.223l6.598 1.223 19.199 6 9 6c6 3.59 10.402 7.992 13.199 13.199 1.598 2.785 2.398 5.387 2.398 7.801 3.602 7.992 5.797 15.793 6.602 23.387 4.801 32.809 2.398 67.801-7.199 105a610.92 610.92 0 0 1-10.801 36c1.598.395 3 1.402 4.199 3 5.606 10.008 9.602 22.199 12 36.613 1.199 9.59 1.402 18.59.602 27-1.199 13.992-3 24.793-5.398 32.387-2.004 8.387-4.402 13.008-7.199 13.801-2.797-.395-5.606-4.992-8.398-13.801-2.004-7.598-3.602-18-4.801-31.199-2.004-11.605-4.199-21.395-6.602-29.41-2.004 3.613-3.996 7.621-6 12-6 12.422-12.805 24.422-20.398 36L935.4 656.38c-2.004 2.41-9.793 11.41-23.398 27l-10.199 10.199v1.801c2.004 19.621-.805 38.207-8.398 55.801-1.598 4.008-4.598 9-9 15-2.797 4.008-5.594 7.008-8.398 9-3.996 2.809-7.801 4.598-11.398 5.387l-3.008-.566-.602-2.41 4.199-21c1.609-5.578 2.606-10.379 3-14.387 1.609-7.199 2.606-14.605 3-22.199l-26.398 24v.59c0 4.008-1.598 6.613-4.801 7.801-3.203.793-6 1.402-8.398 1.801l-26.398 18c-4.391 3.215-15.793 10.402-34.199 21.613L744 810c-44.398 24.793-68.605 37.008-72.602 36.59 1.598-4.379 23.004-21.191 64.199-50.387l26.398-18.613 28.199-19.777c-1.199-.395-2.195-.613-3-.613l-16.797-2.398c-3.602-.395-7.402-1.402-11.398-3-7.598-2.809-11.605-5.606-12-8.41.793-2.785 5.004-5.207 12.602-7.199l73.199-15h1.199l16.801-13.801 40.801-43.199c2.797-3.191 5.398-6 7.801-8.387l-9.004 2.394c-13.598 1.598-24.602 1.992-33 1.199-9.203-1.598-14.004-3.793-14.398-6.59.395-2.809 4.598-6 12.602-9.613l61.801-25.199 9.602-6 3-2.41c.395-.793 1.199-.984 2.398-.59 5.606-7.598 11.797-19.008 18.602-34.199 13.199-28.008 22.801-54.613 28.801-79.801.395-1.199.793-2.606 1.199-4.199-6.805 3.59-13.801 6.984-21 10.199-11.207 4.402-21.406 7.402-30.602 9-9.602 1.598-15.203 1.199-16.801-1.199-.395-2.41 3-6.613 10.199-12.613 4.801-4.801 13.199-10.992 25.199-18.613l21-13.777a406.24 406.24 0 0 0 19.199-14.41c1.199-16.379.805-32.387-1.199-48-1.598-11.605-2.207-18.984-1.801-22.199v-2.387l-24-6-6-.613c-19.598-2.785-41.195-1.199-64.801 4.801-20.004 4.402-40.199 11.605-60.602 21.59-17.605 8.016-35.004 18-52.199 30l-22.199 18c-4.402 4.008-10.801 10.402-19.199 19.223-20.004 23.605-37.598 52.777-52.801 87.59-9.996 23.207-20.195 51.613-30.602 85.199l-23.398 75.613-22.199 62.387c-13.199 36-27.395 66.215-42.602 90.613-20.004 32.809-41.797 56.605-65.398 71.387-3.602 1.621-6.394 3-8.398 4.223 5.195-2.016 10.801-3.394 16.801-4.223 14.797-2.387 30.996-3.191 48.602-2.387 20.004 1.199 49.609 4.992 88.801 11.387 23.594 4.402 44.195 7.402 61.801 9l77.398.613c37.609-1.598 68.398-4.801 92.398-9.613 40.801-8.785 74.004-21.59 99.602-38.387 33.996-23.605 61.801-54.395 83.398-92.387 24.805-43.223 40.598-89.41 47.398-138.61l2.398-19.801c.805-8.785.996-15.395.602-19.801l-6.602-85.199-8.398-44.387c-18.406-74.809-41.797-134.61-70.199-179.41-13.199-18.793-21.996-30.793-26.398-36l-13.199-16.199c-4.406-4.812-6.004-8.797-4.805-12.016z"></path></svg>