<svg style="width:100%; height:auto; fill:rgb(93, 221, 98);" xmlns="http://www.w3.org/2000/svg" viewBox="0 0 1200 1200" height="1200" width="1200"><path d="m384.52 826.77c-4.4023-7.2109-9-12.406-13.801-15.613l-10.199-5.3867-12.602-3c-15.996-1.6211-36.602-0.80469-61.801 2.3867-32.398 4.0078-50.398 1.0078-54-9-5.1953 7.9922-9 16.992-11.398 27-3.6016 18.395-4.4023 44.398-2.3984 78 0.80469 18.395 2.7969 39.613 6 63.613 1.5977 13.598 4.1992 26.195 7.8008 37.789l6 18c3.6016 5.5938 6.8047 9.2031 9.6016 10.789h1.8008c2.3984 2.4102 9.2031 3 20.398 1.8008 14.398-1.5977 26.004-2.3867 34.801-2.3867v-1.2109c18.395-0.80469 31.801-2.207 40.199-4.2109 15.602-2.7852 26.797-6.9961 33.602-12.59 4.8008-3.6133 7.1992-7.0078 7.1992-10.211 1.1992-3.2031 2.1953-10.211 3-21l6-52.211c1.1992-19.199 1.5977-36.793 1.1992-52.789-0.80469-20.777-4.6094-37.363-11.402-49.77zm448.2 87.586c-4.4023-1.1992-8.7969-2.207-13.199-3l-1.1992 13.801c-3.2031 37.598-4.8008 58.008-4.8008 61.199 0 33.215 0.60156 54.613 1.8008 64.211 2.7969 27.203 9.9961 44.004 21.602 50.398l5.3984 2.3867 13.801 1.8008 6.6016-0.60156c8.0039-0.40625 16.402-4.7891 25.199-13.211 8.3984-7.1992 15-16.598 19.801-28.199 4.8008-10.801 8.3984-22.598 10.801-35.387 2.3984-14.809 2.6055-27.215 0.60156-37.211l-6-18c-3.6016-8.0039-6.6016-13.391-9-16.211-13.613-18.77-37.398-32.762-71.406-41.977zm67.801-708-32.398-37.199c-14.797-18.395-27.602-37.008-38.398-55.801l-12-28.199-1.8008-6.6016-2.3984-18.602 8.3984 16.801c13.598 25.598 34.199 52.379 61.801 80.387l34.199 33.613c15.996 15.191 30 29.785 42 43.789 41.195 48.793 71.398 93 90.602 132.6 15.996 33.203 26.004 66.793 30 100.8 2.3984 14.387 2.6055 34.199 0.60156 59.387-2.7969 25.609-6.6016 46.402-11.398 62.41-4.4023 18-12.406 39.191-24 63.59-9.6016 18.793-22.402 39.395-38.398 61.801-30.793 37.992-70.199 72.793-118.2 104.4-14.398 8.3984-25.391 13.789-33 16.211-10.391 3.1914-18.203 4.1992-23.398 3v14.387c0 7.1992-0.99609 13.992-3 20.398v0.60156c4.4023 0.39453 9 1.4023 13.801 3 18.793 5.6055 35.605 12.613 50.398 21 16.391 9.2031 29.797 21.395 40.199 36.613 1.6094 1.5977 6.2031 9.5898 13.801 24 3.9961 9.9844 6.6016 18.59 7.8008 25.789 2.7969 14.797 2.3984 31.609-1.1992 50.398-4.4023 18.793-9.3945 33.996-15 45.602-8.7969 16.789-18.203 29.594-28.199 38.398-13.598 12.395-29.004 19.199-46.199 20.387-10.801 1.2109-18.793 0.79297-24-1.1992l-11.398-3-12-6c-13.199-8.7969-22.402-21.602-27.602-38.387-3.9961-12-6.6016-24.805-7.8008-38.41-0.79297-12.793-0.79297-35.785 0-69l7.8008-77.387c-17.195-1.6094-35.398-2.3984-54.602-2.3984-29.605-0.80469-65.605 0.99609-108 5.3984-1.1992 0-39.793 4.1992-115.8 12.602-18.406 2.3984-36.805 2.7969-55.199 1.2109-9.2031-0.40625-17.004-1.4023-23.398-3-0.39453 4.3789-0.79297 9-1.1992 13.789l-6 51.602c-2.3984 15.613-4.1992 24.793-5.3984 27.613l-3.6016 9.5898-4.8008 7.2109c-3.9961 4.7891-8.0039 8.3984-12 10.789-12.793 10.008-29.398 16.402-49.801 19.211-9.6016 1.6094-23.797 2.7969-42.602 3.6016l-37.199 1.1992c-17.207 0-30-2.6055-38.398-7.7891l1.1992 0.60156c-7.5977-4.8008-14.594-12.793-21-24l-7.8008-24c-0.79297-1.5977-1.4023-4.1992-1.8008-7.8008-33.203-0.39453-57.406-3.5898-72.602-9.5898-7.5977-3.2148-11.797-6.6133-12.602-10.211 0.79297-3.2031 5.0039-6.2031 12.602-9 14.004-6 36.805-9.4062 68.398-10.211-1.5977-25.199-2.207-45.59-1.8008-61.199 0.79297-7.5977 1.4023-14.797 1.8008-21.602-31.598-0.80469-54.395-3.9961-68.398-9.6016-7.5977-2.8086-11.797-6-12.602-9.6133 0.79297-3.1914 5.0039-6.3945 12.602-9.5898 15.203-6 39.996-9.4062 74.398-10.211 1.5977-8.0039 3.6016-15 6-21 5.207-12 11.797-21 19.801-27h0.60156c0-6.8047 6.3945-12.805 19.199-18 9.9961-4.7891 20.398-7.6094 31.199-8.3984 30-3.6016 54.203-4.1992 72.602-1.8008l19.801 4.2109c9.9961 4.3906 16.199 7.6094 18.602 9.6016 10.801 7.1992 19.598 17.398 26.398 30.613 8.7969 16.379 14.004 38.387 15.602 66v21c5.6055-1.2109 12.203-2.8086 19.801-4.8008 12.805-2.8086 30.406-5.8086 52.801-9 69.602-7.6094 108.6-11.605 117-12 43.598-4.0078 81.203-5.8086 112.8-5.3984 19.598 0 38.594 1.2109 57 3.6016l0.60156-6.6016c-0.39453-2.7969-0.60156-5.6055-0.60156-8.3984v-13.801c-5.6055 0.39453-13.199-0.79297-22.801-3.5898-7.6094-2.4102-18.805-7.8008-33.602-16.211-48-30.805-87.203-65.797-117.6-105-15.602-20.004-28.402-40.609-38.398-61.789-11.594-24.406-19.598-45.613-24-63.613-4.8008-16.008-8.5938-36.793-11.398-62.387-2.0039-25.211-1.8008-45 0.60156-59.41 3.9961-33.59 14.004-67.391 30-101.39 18.395-38.004 48.793-82.008 91.199-132 12-14.004 26.004-28.609 42-43.801l33.602-34.199c27.602-27.613 48.203-54.215 61.801-79.801l8.3984-16.199-4.1992 25.801-12 28.199c-14.398 23.207-27.602 41.785-39.602 55.801l-31.801 37.199c-12 12.793-24.602 27.602-37.801 44.387-20.398 27.215-34.391 46.402-42 57.613-15.996 24.395-29.398 48.395-40.199 72-28.801 65.605-32.797 132-12 199.2 2.7969 13.199 9.9961 31.801 21.602 55.801 7.1992 14.785 18.793 33.191 34.801 55.199 29.605 36.793 65.605 68.605 108 95.398 12.406 8.0039 21.996 15 28.801 21 2.3984 1.6094 4.6094 3.793 6.6016 6.6016 0.39453-99.602 1.5977-184.01 3.6016-253.2 12.805-216.39 24.996-216.39 36.602 0-0.80469 42-1.4023 73.391-1.8008 94.199v8.3984c0.40625 45.602 0.60156 96 0.60156 151.21 2.0039-2.4102 4.4023-4.8008 7.1992-7.2109 15.203-11.207 24.602-18.203 28.199-21 43.199-27.203 79.402-59.207 108.6-96 12.395-15.996 24-34.211 34.801-54.602 10.402-20.809 17.797-39.793 22.199-57 20.797-67.609 16.199-134-13.801-199.2-15.203-35.207-42.406-78.215-81.602-129-13.219-17.203-25.82-32.023-37.82-44.418z"></path></svg>