<svg style="width:100%; height:auto; fill:rgb(93, 221, 98);" xmlns="http://www.w3.org/2000/svg" viewBox="0 0 1200 1200" height="1200" width="1200"><path d="M130.25 244.61c4.402 3.59 7.402 6.394 9 8.387 8.797 10.402 15.406 25.598 19.801 45.613.395 3.191 2.195 13.598 5.398 31.199 2.004 12.793 4.199 23.387 6.602 31.801 3.996 12.395 9.793 21.59 17.398 27.59 11.207 8.41 23.207 14.004 36 16.801 13.598 3.203 29.207 2.398 46.801-2.387 17.605-6 33.203-10.801 46.801-14.41-5.606-8.785-14.207-17.387-25.801-25.789l-25.199-18c-7.598-5.606-11.207-9.996-10.801-13.211 1.199-2.785 6.996-3.996 17.398-3.59 9.602 0 21 3 34.199 9 9.203 3.984 18 9.394 26.398 16.199l1.199 1.199c-1.598-3.602-2.797-7.008-3.602-10.199L321.042 320.2l-5.398-9.59c-8.398-14.41-20.398-27.215-36-38.41-16.801-13.598-39-22.992-66.602-28.199-26.785-4.406-54.398-4.203-82.793.609zm508.2 300.59l54 10.211 26.398 3.602 92.398 10.801c54.805 9.191 100.6 22.199 137.4 39 29.605 13.992 52.402 28.801 68.398 44.387 22.801 21.613 39.203 46.008 49.199 73.211 2.004 3.203 3.602 9 4.801 17.398 2.398 13.598 3.602 21.191 3.602 22.801-.805 18.793-4.598 28.379-11.398 28.789-7.199 0-13.199-7.789-18-23.398l-12-32.387c-7.199-20.016-20.797-40.008-40.801-60-12.793-12-32.605-25.008-59.398-39-33.203-15.613-75.996-27.805-128.4-36.613l-90.602-12c-6.805-.395-16.598-1.992-29.398-4.801l-52.801-11.387c-18.395-3.215-33.805-4.609-46.199-4.199-7.598 0-14.004.984-19.199 3-6 1.199-11.605 3.59-16.801 7.199-8.797 5.606-13.801 13.391-15 23.387-.395 3.215.395 8.41 2.398 15.613 1.199 4.391 3.203 8.606 6 12.602 4.801 7.609 12.395 13.789 22.801 18.602 8.797 5.207 27.203 12.395 55.199 21.613l48 15.59c27.996 8.41 49.598 18.215 64.801 29.41 11.195 8.387 20.004 18.395 26.398 30h-.602c2.398 4.789 3.996 9.59 4.801 14.387v3.613l-1.801-2.41c-.805-1.598-3.602-6-8.398-13.199-.395-.793-.793-1.402-1.199-1.801l-77.398 6c-23.605.793-43.598 1.008-60 .613-12.805 0-38.398-1.801-76.801-5.398l-96.602-17.398c-24-6-42.395-11.387-55.199-16.199-22.801-6.793-42.805-13.609-60-20.398l-64.199-26.398c-11.605-5.207-22.801-9.394-33.602-12.602-12-3.996-24-7.391-36-10.211-12-2.785-24.395-4.789-37.199-6-14.398-.793-24-.191-28.801 1.801-5.594 1.199-11.594 3.613-18 7.199-6.793 3.613-11.797 8.41-15 14.41-4.801 10.789-5.004 21.191-.602 31.199 3.996 9.996 12 20.387 24 31.199 10.801 10.008 23.004 19.199 36.602 27.613 24.406 14.387 54.996 29.195 91.801 44.387 22.402 8.797 39.602 15.203 51.602 19.199l169.2 54c124.4 41.207 209.4 67.801 255 79.801 63.996 16.008 111.2 26.398 141.6 31.199 56.004 10.008 107.21 15 153.6 15 29.195-.395 52.801-.191 70.801.613 33.203-.793 50.605 2.207 52.199 9 .793 5.606-15.602 12.602-49.199 21-33.996 5.207-58.801 6.996-74.398 5.387-45.996 0-99.203-4.992-159.6-15-31.598-5.207-80.207-16.199-145.8-33-54.805-15.191-140.4-42.395-256.8-81.59l-114-37.801-108-37.801c-41.594-18-73.598-34.199-96-48.602-15.203-9.602-29.004-20.207-41.398-31.789-15.602-14.809-25.801-29.809-30.602-45-7.199-19.621-5.398-38.41 5.398-56.41 3.996-6.793 9-12.59 15-17.387 2.797-4.008 6-7.402 9.602-10.199 18-18 35.398-30.613 52.199-37.801 18.805-8.004 39.602-10.402 62.398-7.199 15.996 1.992 33.602 6.59 52.801 13.789l123 52.211c29.195 10.789 52.199 18.59 69 23.387 80.004 25.992 142.2 44.207 186.6 54.613l73.801 14.387 13.199 4.199-13.801 1.801-27 .613c-25.598-1.211-42.395-2.41-50.398-3.613-48.406-5.606-112.4-19.992-192-43.199-14.398-3.613-38.398-11.004-72-22.199l-79.801-32.41c-9.203-3.191-23.398-8.785-42.602-16.789-17.605-6.406-32.797-10.211-45.602-11.398-14.398-1.598-27.805-.203-40.199 4.199 12 1.211 24.793 3.394 38.398 6.613l37.801 11.387 97.801 42c66 27.613 134.4 47.207 205.2 58.801l40.199 4.801c15.996 1.199 27.805 2.387 35.398 3.602 5.195.395 24.602 1.211 58.199 2.398l73.801 1.801c-6.394-6.406-14.195-12.406-23.398-18-15.203-8.41-36.793-15.805-64.801-22.211l-48.602-12c-30-8.004-50.398-14.605-61.199-19.789-13.199-6.805-23.797-15.215-31.801-25.211-4.402-6-7.801-13.211-10.199-21.602-2.797-10.008-4.199-18-4.199-24 1.199-9.613 3.996-18.395 8.398-26.398 3.996-6.805 10.402-13.391 19.199-19.789 9.602-5.606 18-9.215 25.199-10.801l12.602-3.613 13.199-1.199c15.211-.828 33.004.578 53.406 4.164zm27.598-379.8c9.996-.805 16.801 1.391 20.398 6.602 3.203 6.394.805 13.199-7.199 20.398-6.394 6.394-12.996 10.391-19.801 12l-7.199 2.398c-.395 0-.602.395-.602 1.199-4.801 6.394-8.606 15.203-11.398 26.398-3.602 10.789-5.398 26.398-5.398 46.789-.805 13.609-.203 38.207 1.801 73.801 0 19.598-1.801 36.613-5.398 51-1.199 6-5.004 15.395-11.398 28.199l-8.398 13.211-24 23.398-13.801 10.199c-13.199 8.398-23.398 13.992-30.602 16.801-24.406 10.801-48.805 17.785-73.199 21-4.801 1.598-10.801 1.199-18-1.199-8.797-2.809-12.996-7.402-12.602-13.801.406-10.008 9-16.801 25.801-20.398 21.996-3.203 43.199-9.203 63.602-18l26.398-13.789 16.199-12 4.199-4.801c11.605-10.008 19.801-22.801 24.602-38.398 3.602-12.805 5.797-27 6.602-42.602.395-35.207 1.402-60 3-74.398 3.203-23.207 7.801-40.391 13.801-51.602 2.398-5.606 5.207-10.801 8.398-15.613-17.605 4.801-38.605 8.41-63 10.801-32.797 5.207-57.395 10.199-73.801 15-39.203 10.801-69.203 32.797-90 66-15.996 26.398-25.199 53.207-27.602 80.398-1.598 20.797 0 40.211 4.801 58.211 2.004 7.598 5.606 15.793 10.801 24.59 6-18.395 14.195-36.996 24.602-55.789 17.605-32.797 38.398-60.406 62.398-82.789 12-10.402 23.398-17.41 34.199-21l7.199-1.211-4.801 6c-9.996 11.594-18 21.395-24 29.398-18.805 25.598-34.801 53.207-48 82.801-11.195 26.785-19.801 51.395-25.801 73.789-3.996 15.996-6.203 31.391-6.602 46.211-.793 19.992.996 36.191 5.398 48.59 1.199 4.008 1.801 7.801 1.801 11.41 0 5.195-2.606 10.379-7.801 15.59-6 4.008-12 3.394-18-1.789-5.606-3.996-8.797-8.398-9.602-13.211-6-16.391-8.606-37.598-7.801-63.59.805-14.809 3.805-32.207 9-52.211 1.199-2.004 2.004-4.391 2.398-7.211l-10.801-13.199c-4.402-6.394-8.207-13.402-11.398-21-4.801-10.801-8.195-22.598-10.199-35.387-.793.395-1.402.793-1.801 1.199-3.996 3.191-8.195 5.207-12.602 6-13.598 3.602-33.996 9.602-61.199 18-8.797 2.785-19.402 4.598-31.801 5.387-12.805 0-23.398-.996-31.801-3-18.805-5.207-35.605-14.387-50.398-27.59-11.605-10.008-19.598-24.613-24-43.801-2.398-8.809-4.199-21.215-5.398-37.199-.793-18-1.402-27.805-1.801-29.41-1.199-16.391-4.598-29.387-10.199-39l-7.801-11.387-3.602-3c-3.602 1.199-7.598 1.199-12 0-6.805-1.609-11.207-5.398-13.199-11.398-2.398-6.406-.805-12 4.801-16.789 3.996-4.008 8.398-6.406 13.199-7.211 39.602-9.602 77.605-10.609 114-3 32.398 6.793 59.004 19.609 79.801 38.398 18.395 15.996 31.199 33.191 38.398 51.602l8.398 22.211c2.004 11.195 3 17.594 3 19.199 1.598 10.391 1.801 20.387.602 30 1.199 1.598 2.398 3.602 3.602 6 1.199-30.793 9.602-60.793 25.199-90 9.203-16.801 23.195-33 42-48.613 17.195-14.785 38.797-26.387 64.801-34.789 14.004-4.391 40.199-9.996 78.602-16.789 37.598-5.207 65.398-11.016 83.398-17.41z"></path></svg>