<svg style="width:100%; height:auto; fill:rgb(93, 221, 98);" xmlns="http://www.w3.org/2000/svg" viewBox="0 0 1200 1200" height="1200" width="1200"><path d="m1061.4 897.48c-106.62-131.89-213.24-263.78-319.86-395.66 94.062-134.56 15.773-314.67-138.63-365.93-108.82-36.129-233.45 10.023-320.05 77.238-118.42 91.922-151.42 241.97-72.422 372.88 64.844 107.45 176.55 109.88 283.35 80.316 18.793 33.082 33.328 67.047 64.637 85.449 18.402 10.82 75.152 9.668 83.926 27.402 6.5391 13.219-11.461 66.52-14.125 81.312 0.98438 1.6562 2.4844 2.5117 4.5039 2.5625 84.617 11.914 81.566 7.6016 73.805 92.273 0.98438 1.6562 2.4844 2.5117 4.5039 2.5625 19.992 2.6523 77.238-0.35938 86.469 14.918 8.7969 14.562-9.0508 71.312-11.523 90.801 0.98438 1.6562 2.4844 2.5117 4.5039 2.5625 99.18 17.648 383.71 10.484 270.91-168.68zm-200.19 153.82c-30.281-17.281-13.703 6.0664-19.457-30.121-3.1406-19.742 6.0312-47.523 8.5898-67.68-0.98438-1.6562-2.4844-2.5117-4.5039-2.5625-87.438-11.598-87.578-4.8828-79.562-92.332-0.98438-1.6562-2.4844-2.5117-4.5039-2.5625-86.773-12.215-81.543-8.668-66.109-94.43-0.98438-1.6562-2.4844-2.5117-4.5039-2.5625-87.508-25.766-103.17-36.188-149.3-113.85-4.9102-8.2656-29.168 0.24609-34.812 2.125-232.95 77.566-360.5-198.28-245.25-369.15 199.69-296.07 606.16-16.371 427.48 235.01-0.62891 0.88672-0.41797 1.5 0.43359 1.8906-0.26172 0.050782-0.52344 0.10156-0.78516 0.15234 106.77 132.08 213.55 264.16 320.32 396.24 8.5234 13.535 16.531 29.523 19.543 45.305 3.375 17.68-0.61328 33.984-9.1484 48.348-108.84-158.04-240.57-303.5-365.14-448.85-10.059-11.734-43.148 2.0195-31.871 15.184 127.61 148.91 262.88 297.82 373.2 460.36-37.344 29.609-96.844 41.047-134.62 19.488zm-308.92-681.89c-1.9805-57.371-44.02-92.785-100.05-94.16-51.758-1.2695-108.73 23.887-119.95 78.848-24.902 122.04 211.14 133.2 220.13 19.539 0.082031-1.0117-0.45703-1.6328-0.57031-2.5234 0.058594-0.59375 0.45703-1.0938 0.4375-1.7031zm-165.96-27.508c10.496-33.621 50.043-42.695 79.699-26.27 23.555 13.047 32.293 38.828 33.836 64.164-6.6094 72.996-136.63 36.074-113.54-37.895z"></path></svg>