<svg style="width:100%; height:auto; fill:rgb(93, 221, 98);" xmlns="http://www.w3.org/2000/svg" viewBox="0 0 1200 1200" height="1200" width="1200"><path d="m808.54 480.23c-30.738 0-67.887 6.7266-97.453 0-32.949-7.4961-30.152 10.465-7.4023-36.656 31.113-64.441 52.395-135.58 78.215-202.4 0.57422-1.4883-0.089843-2.5156-1.207-3.3438-0.125-1.875-2.4609-3.1133-8.9844-2.7344-98.641 5.7383-197.29 11.473-295.93 17.207-6.7773 0.39453-21.82 2.9922-24.375 11.191-44.004 141.08-88.008 282.17-132.02 423.25-2.1641 6.9414 11.48 6.293 14.543 5.6992 49.652-9.6914 101.5-15.723 150.17-29.309 53.242-14.859 28.418-7.0977 21.723 50.59-12.402 106.86-24.805 213.71-37.207 320.56-1.582 13.621 30.535 1.8203 34.566-5.1172 105.18-180.95 210.37-361.91 315.55-542.87 2.9805-5.1289-8.207-6.0742-10.195-6.0742zm-135.45 202.28c-54.008 92.918-108.02 185.83-162.03 278.75 12.281-105.83 24.566-211.66 36.852-317.48 0.80859-6.9688-10.219-6.5391-14.543-5.6953-39.684 7.7461-79.367 15.488-119.05 23.234-13.258 2.5859-41.828 13.957-57.695 12.91 0.69141-1.5352 1.2578-3.4688 1.5547-6.1289 9.5664-86.367 56.758-181.97 82.68-265.07 10.773-34.543 36.438-84.559 37.801-121.2 0.21484-5.7969 2.4453-10.863 4.3828-14.625 5.0586 0.015626 9.8398 0.21484 12.383 0.40625 80.215 6.082 167.94-8.582 249.2-14.305-30.676 79.375-61.348 158.75-92.02 238.12-2.0781 5.3828 7.3984 6.0742 10.191 6.0742 31.527 0 66.57-5.0898 97.453 0 8.625 1.4219 14.344 1.4922 18.16 1.0234-1.1953 1.832-2.3164 4.3789-3.0781 8.1016-11.512 56.211-73.574 126.56-102.25 175.89z"></path></svg>