<svg style="width:100%; height:auto; fill:rgb(93, 221, 98);" xmlns="http://www.w3.org/2000/svg" viewBox="0 0 1200 1200" height="1200" width="1200"><path d="m1095.4 668.6c-11.57-271.61-229.55-461.12-497.71-451.67-262.55 9.25-451.83 222.25-492.83 473.51-1.6523 10.121 29.426-0.75 32.902-4.3164 89.895-92.172 207.57-67.449 290.31 15.699 6.6172 6.6484 29.031-3.0664 33.531-8.9844 31.645-41.629 75.039-59.699 120.47-61.305 0.007812 0.070313-0.046875 0.13281-0.035156 0.20313 9.2539 62.047 15.637 124.83 18.434 187.5 2.1445 48.031 4.9883 101.63-6.0508 149.04-16.973 72.906-117.5 62.172-122.57-11.199-0.17578-2.5547-4.6172-3.5469-6.4766-3.4961-17.918 0.5-35.836 0.99609-53.75 1.4922-4.625 0.12891-15.477 2.3047-14.391 9.0859 9.6875 60.5 38.785 123.41 104.34 136.06 56.359 10.883 110.46-18.371 136-69.176 52.969-105.39 16.93-278.19-0.042968-393.68 42.941 10.141 84.262 32.434 115.79 61.629 6.0391 5.5898 30.434-1.9922 33.531-8.9844 54.746-123.61 204.54-68.973 274.76-10.812 0.058594 0.046875 0.17578 0.042969 0.23438 0.085937 0.42969 0.25781 0.98047 0.45313 1.6406 0.61719 2.1367 0.78125 4.9844 0.87891 8.3438 0.32031 10.273-1.0195 23.82-5.5039 23.559-11.625zm-950.68-13.602c45.371-214.15 198.73-390.59 406.47-419.41-115.61 73.559-123.2 292.29-124 424.91-90.164-69.77-193.18-72.059-282.47-5.5zm317.19 6.8477c0.625-124.45 6.8438-379.51 128.65-427.52 2.2344-0.87891 3.7266-1.75 5.1641-2.6211 13.34-0.46875 26.867-0.33984 40.582 0.41406-0.074219 1.0078 0.24609 1.9883 1.2148 2.8828 99.84 91.977 110.93 287.16 114.85 425.09-91.496-64.645-205.71-72.797-290.46 1.7539zm172.43 291.55c-2.8281 34.477-6.9102 68.336-29.34 96.258-85.629 106.58-164.8 0.17578-182.24-68.664-0.4375-1.7227-1.0391-7.7969-2.1875-12.684 7.9883-1.7891 19.848-5.7188 24.633-1.8086 11.402 9.3242 9.4102 38.523 22.137 56.227 57.195 79.559 140.57-9.1562 150.67-72.656 16.039-100.81 1.5703-211.15-13.367-312.02 25.066 9.5508 17.008 44.203 20.836 81.965 7.8008 76.961 15.191 156.1 8.8555 233.39zm152.7-306.68c-3.8008-132.42-14.551-311.4-102.37-409.36 13.738 2.1758 27.578 4.7578 41.621 8.1953 184.74 45.246 310.02 212.09 331.46 396.7-82.188-46.992-202-61.953-270.71 4.457z"></path></svg>