<svg xmlns="http://www.w3.org/2000/svg" viewBox="0 0 400 400" width="400" height="400" style="width:100%; height:auto;" xmlns:v="https://vecta.io/nano"><path d="M347.808 20.305c-1.171-2.646-2.107-4.496-2.808-5.549-1.606-2.411-3.641-4.209-4.686-5.273-5.293-5.392-10.704-7.255-14.777-8.078-4.067-.822-9.949-2.698-17.927 0-1.578.534-4.862 1.423-7.769 3.27-1.278.812-3.136 2.414-5.575 4.808L153.5 101.3c-22.288 14.876-32.366 23.593-33.797 24.622-13.356 9.604-29.641 24.737-39.073 35.391-11.806 13.334-21.477 27.796-28.088 42.211-4.488 9.786-7.747 19.418-10.134 28.989-.565 2.267-3.304 12.759-4.413 24.771-.984 10.657-1.141 22.74-.71 28.891.883 12.612 5.355 25.431 8.512 37.585.514 1.978 4.646 13.01 11.349 25.729s14.585 23.961 15.852 26.913c.144.336 2.718-8.506 10.34-26.913 8.532-20.606 22.905-53.127 50.808-92.205 9.765-13.677 24.42-35.256 52.659-61.627 4.325-4.039 9.872-10.663 19.993-17.803 1.424-1.005 3.897-4.28 6.872-5.779 1.252-.631 3.349-1.002 6.291-1.112.351-.2.675-.087.972.339.069.099.277.205.368.773.073.459.094.303.074 1.224-.005.219-.163 1.706-.321 2.18a106.33 106.33 0 0 1-.83 2.375c-1.391 3.822-3.252 7.19-4.841 10.231-2.256 4.318-5.24 9.119-8.584 14.396l-6.328 9.784c-16.305 24.384-41.063 57.002-58.776 86.646-19.524 32.674-32.642 58.841-35.581 66.978-3.405 9.428-7.093 20.775-11.064 34.041h15.995c7.129-.214 12.567-.827 16.308-1.174 13.309-1.235 23.33-3.802 29.872-5.529 22.122-5.839 41.969-13.567 56.446-20.789 13.194-6.582 21.872-12.855 24.829-14.687 49.188-30.471 73.836-69.164 84.947-85.903 12.324-18.567 36.364-62.448 39.521-128.147.862-17.932.226-46.379-6.198-85.295-1.293-7.834-4.28-20.535-8.96-38.103z" fill="#00a222" fill-rule="evenodd"/></svg>