<svg classes="w-full h-auto " alt="Verde Climate Solutions logo" role="img" viewBox="0 0 1170 550" xmlns="http://www.w3.org/2000/svg"><path d="M95.819 526h22.283l95.819-225h-27.058l-79.584 192.447L28.013 301H0zm176.308-1.596h162.669v-22.979H297.275v-78.191h121.604v-22.979H297.275v-76.277h135.929V301H272.127zm227.559 0h25.148v-86.809h63.667l64.622 86.809h30.878l-68.442-91.277c35.017-6.383 60.484-28.085 60.484-65.106v-.638c0-17.553-6.367-33.191-17.19-44.043-14.007-14.043-35.972-22.34-63.349-22.34h-95.819v223.404zm25.148-109.468v-90.638h68.76c35.972 0 56.982 16.596 56.982 44.043v.638c0 28.723-23.875 45.957-57.3 45.957h-68.442zm219.284 109.468h77.355c70.034 0 118.421-48.83 118.421-111.702v-.638c0-62.872-48.387-111.064-118.421-111.064h-77.355v223.404zm77.355-200.106c56.345 0 92.317 38.936 92.317 88.404v.638c0 49.468-35.972 87.766-92.317 87.766h-52.207V324.298h52.207zm185.858 200.106H1170v-22.979h-137.521v-78.191h121.604v-22.979h-121.604v-76.277h135.929V301h-161.077z" fill="#fff"></path><path id="A" d="M149.946 15.685c.904-2.044 1.627-3.473 2.169-4.287 1.24-1.863 2.813-3.251 3.62-4.074 4.089-4.166 8.269-5.605 11.415-6.241s7.686-2.084 13.849 0c1.219.412 3.756 1.099 6.002 2.526.987.627 2.422 1.865 4.306 3.714l108.742 70.929c17.217 11.492 25.003 18.226 26.108 19.02 10.318 7.419 22.897 19.109 30.184 27.339 9.12 10.301 16.591 21.472 21.698 32.608 3.467 7.56 5.984 15 7.828 22.394.437 1.752 2.553 9.856 3.409 19.136.76 8.233.881 17.567.549 22.318-.682 9.742-4.137 19.646-6.576 29.034-.397 1.528-3.589 10.05-8.767 19.876s-11.267 18.51-12.245 20.79c-.112.26-2.1-6.571-7.988-20.79-6.591-15.918-17.694-41.04-39.249-71.228-7.544-10.565-18.864-27.235-40.679-47.607-3.341-3.12-7.626-8.237-15.444-13.752-1.1-.776-3.01-3.306-5.309-4.464-.967-.487-2.587-.774-4.86-.859-.271-.154-.521-.067-.751.262-.053.076-.214.158-.284.597-.056.354-.073.234-.057.946.004.17.126 1.318.248 1.684l.641 1.835c1.074 2.952 2.512 5.554 3.74 7.904 1.743 3.335 4.048 7.044 6.631 11.121l4.888 7.558c12.595 18.837 31.721 44.034 45.405 66.934 15.082 25.24 25.216 45.455 27.486 51.741 2.63 7.283 5.479 16.049 8.547 26.296h-12.356c-5.507-.166-9.708-.638-12.598-.907-10.281-.954-18.022-2.937-23.076-4.271-17.089-4.51-32.421-10.48-43.605-16.059-10.192-5.085-16.896-9.93-19.181-11.346-37.998-23.539-57.039-53.429-65.621-66.36-9.52-14.343-28.091-48.241-30.53-98.994-.666-13.852-.174-35.827 4.788-65.891.999-6.052 3.306-15.864 6.922-29.435z" style="fill:#00a222" transform="matrix(-1 0 0 1 528 0)"></path></svg>